<svg xmlns="http://www.w3.org/2000/svg" xmlns:xlink="http://www.w3.org/1999/xlink" preserveAspectRatio="xMidYMid" width="325" height="325" viewBox="0 0 325 325">
  <defs>
    <style>
      .cls-1 {
        fill: #000;
      }

      .cls-2 {
        fill: #fff;
        fill-rule: evenodd;
      }
    </style>
  </defs>
  <circle fill="#000000" cx="162.5" cy="162.5" r="162.5" class="cls-1"/>
  <path fill="#ffffff" d="M222.472,178.009 L222.472,127.029 L186.427,127.029 L186.427,178.009 L179.501,178.009 L179.501,74.346 L186.427,74.346 L186.427,120.364 L222.472,120.364 L222.472,74.346 L229.399,74.346 L229.399,178.009 L222.472,178.009 ZM124.997,179.427 C116.657,179.427 110.297,176.403 105.915,170.351 C101.533,164.301 99.342,155.628 99.342,144.329 L99.342,74.346 L106.339,74.346 L106.339,145.180 C106.339,154.162 107.952,161.004 111.180,165.707 C114.407,170.411 119.013,172.762 124.997,172.762 C130.934,172.762 135.433,170.411 138.497,165.707 C141.559,161.004 143.091,154.068 143.091,144.897 L143.091,74.346 L150.017,74.346 L150.017,144.329 C150.017,167.728 141.677,179.427 124.997,179.427 Z" class="cls-2"/>
  <path fill="#ffffff" d="M194.432,259.308 C183.149,259.308 167.859,248.335 161.946,236.724 C156.089,248.335 140.942,259.308 129.765,259.308 C92.621,259.308 68.838,249.833 44.947,208.708 C99.556,229.271 124.670,201.854 138.807,201.854 C149.024,201.854 157.841,207.865 161.946,216.556 C166.091,207.865 174.990,201.854 185.304,201.854 C199.575,201.854 224.926,229.271 280.053,208.708 C255.935,249.833 231.928,259.308 194.432,259.308 Z" class="cls-2"/>
</svg>
