<svg xmlns="http://www.w3.org/2000/svg" xmlns:xlink="http://www.w3.org/1999/xlink" preserveAspectRatio="xMidYMid" width="107" height="30" viewBox="0 0 107 30">
  <path fill="#ffffff" d="M100.039,21.428 C99.358,26.743 97.175,30.000 92.475,30.000 L74.315,30.000 C68.619,30.000 61.965,26.162 60.620,21.428 L57.348,12.491 L57.348,12.000 C57.348,10.106 55.817,8.571 53.928,8.571 C52.662,8.571 51.560,9.262 50.968,10.286 L50.536,10.286 L46.619,21.428 C45.267,26.162 38.585,30.000 32.861,30.000 L14.591,30.000 C9.869,30.000 7.670,26.743 6.986,21.428 C5.276,11.143 -0.000,7.714 -0.000,7.714 C-0.000,5.201 1.089,0.515 1.089,0.515 C1.089,0.515 7.101,-0.000 9.316,-0.000 L42.377,-0.000 C48.100,-0.000 52.495,3.428 52.495,3.428 L54.772,3.428 C54.772,3.428 59.146,-0.000 64.841,-0.000 L97.730,-0.000 C99.934,-0.000 105.916,0.515 105.916,0.515 C105.916,0.515 107.000,5.201 107.000,7.714 C107.000,7.714 101.741,11.143 100.039,21.428 ZM41.153,4.286 L12.736,4.286 C9.902,4.286 7.605,6.588 7.605,9.428 L11.171,21.428 C11.171,24.269 11.758,26.571 14.591,26.571 L33.841,26.571 C37.275,26.571 40.716,24.269 41.528,21.428 L45.902,9.428 C46.713,6.588 44.587,4.286 41.153,4.286 ZM99.436,9.428 C99.436,6.588 97.150,4.286 94.330,4.286 L66.060,4.286 C62.642,4.286 60.526,6.588 61.334,9.428 L65.691,21.428 C66.498,24.269 69.923,26.571 73.341,26.571 L90.765,26.571 C93.585,26.571 95.871,24.269 95.871,21.428 L99.436,9.428 Z"/>
</svg>
