<svg xmlns="http://www.w3.org/2000/svg" xmlns:xlink="http://www.w3.org/1999/xlink" preserveAspectRatio="xMidYMid" width="368" height="234" viewBox="0 0 368 234">
  <path fill="#333333" opacity="0.5" d="M37.860,234.006 L37.860,207.093 L27.669,217.474 L17.070,207.366 L28.087,196.297 L0.001,196.297 L0.001,181.949 L42.956,181.949 L53.141,171.700 L24.919,171.700 L24.919,157.359 L67.458,157.359 L95.131,129.892 L78.469,113.226 C52.178,87.401 52.178,45.319 78.469,19.359 C104.355,-6.463 146.757,-6.463 173.188,19.359 L189.703,36.166 L206.780,19.359 C232.656,-6.463 275.195,-6.463 301.082,19.359 C327.370,45.319 327.370,87.401 301.082,113.226 L284.425,130.031 L353.669,198.894 L353.669,171.841 L367.986,171.841 L367.986,223.757 L315.809,223.757 L315.809,209.415 L344.028,209.415 L274.233,140.138 L189.703,223.757 L105.727,140.138 L77.097,168.152 L77.097,209.274 L62.779,209.274 L62.779,182.496 L52.587,192.742 L52.587,234.006 L37.860,234.006 ZM189.703,203.405 L264.043,130.031 L189.703,56.387 L115.917,129.892 L189.703,203.405 ZM105.316,119.784 L179.656,46.279 L162.447,29.608 C142.212,9.254 108.900,9.254 88.658,29.608 C68.284,49.829 68.284,82.759 88.658,103.114 L105.316,119.784 ZM274.233,119.784 L290.890,103.114 C311.130,82.759 311.130,49.829 290.890,29.608 C270.516,9.254 237.336,9.254 216.962,29.608 L199.895,46.279 L274.233,119.784 Z" />
</svg>
