<svg xmlns="http://www.w3.org/2000/svg" xmlns:xlink="http://www.w3.org/1999/xlink" preserveAspectRatio="xMidYMid" width="83" height="58" viewBox="0 0 83 58">
  <defs>
    <style>
      .cls-1 {
        fill: #fdfdfd;
        fill-rule: evenodd;
      }
    </style>
  </defs>
  <path d="M12.831,57.999 L0.000,10.778 L26.438,28.361 L41.498,-0.008 L56.559,28.361 L82.996,10.778 L70.210,57.999 L12.831,57.999 ZM66.524,53.242 L75.080,21.791 L58.698,32.667 C60.109,35.475 62.246,39.418 61.565,42.592 C59.063,53.921 41.634,49.389 45.001,38.332 C45.912,35.205 49.871,32.621 52.555,30.943 L41.498,10.142 L30.441,30.989 C33.945,33.300 37.038,35.068 38.084,39.237 C38.951,43.768 36.038,47.849 31.897,48.936 C26.027,50.476 18.655,45.672 22.387,36.428 C22.887,35.159 23.524,33.891 24.207,32.621 L7.916,21.791 L16.470,53.242 L66.524,53.242 ZM30.987,37.152 L28.211,35.249 C27.164,37.062 25.800,40.097 26.164,41.593 C26.618,43.768 28.575,44.857 30.667,44.360 C32.443,43.860 35.856,40.914 30.987,37.152 ZM56.879,41.593 C57.241,40.235 55.467,36.971 54.648,35.249 C53.101,36.110 49.915,38.466 49.598,39.691 C48.140,44.676 55.832,46.444 56.879,41.593 Z" class="cls-1"/>
</svg>
