<svg xmlns="http://www.w3.org/2000/svg" xmlns:xlink="http://www.w3.org/1999/xlink" preserveAspectRatio="xMidYMid" width="21" height="18" viewBox="0 0 21 18">
  <defs>
    <style>
      .cls-1 {
        fill: #999;
        fill-rule: evenodd;
      }
    </style>
  </defs>
  <path fill="#999999" d="M19.520,14.250 L9.550,14.250 L4.990,17.892 C4.901,17.963 4.792,18.000 4.683,18.000 C4.610,18.000 4.536,17.983 4.468,17.950 C4.297,17.866 4.188,17.692 4.188,17.500 L4.188,14.250 L1.466,14.250 C0.648,14.250 -0.018,13.577 -0.018,12.750 L-0.018,1.500 C-0.018,0.673 0.648,-0.000 1.466,-0.000 L19.520,-0.000 C20.338,-0.000 21.004,0.673 21.004,1.500 L21.004,12.750 C21.004,13.577 20.338,14.250 19.520,14.250 ZM20.014,1.500 C20.014,1.224 19.793,1.000 19.520,1.000 L1.466,1.000 C1.193,1.000 0.971,1.224 0.971,1.500 L0.971,12.750 C0.971,13.026 1.193,13.250 1.466,13.250 L4.683,13.250 C4.956,13.250 5.178,13.473 5.178,13.750 L5.178,16.468 L9.071,13.358 C9.159,13.288 9.267,13.250 9.378,13.250 L19.520,13.250 C19.793,13.250 20.014,13.026 20.014,12.750 L20.014,1.500 ZM16.305,9.084 L5.176,9.084 C4.902,9.084 4.681,8.860 4.681,8.584 C4.681,8.307 4.902,8.084 5.176,8.084 L16.305,8.084 C16.578,8.084 16.799,8.307 16.799,8.584 C16.799,8.860 16.578,9.084 16.305,9.084 ZM16.305,6.000 L5.176,6.000 C4.902,6.000 4.681,5.776 4.681,5.500 C4.681,5.223 4.902,5.000 5.176,5.000 L16.305,5.000 C16.578,5.000 16.799,5.223 16.799,5.500 C16.799,5.776 16.578,6.000 16.305,6.000 Z" class="cls-1"/>
</svg>
