<svg xmlns="http://www.w3.org/2000/svg" xmlns:xlink="http://www.w3.org/1999/xlink" preserveAspectRatio="xMidYMid" width="37.97" height="36.94" viewBox="0 0 37.97 36.94">

  <path fill="#cc3333" d="M35.596,19.071 L33.314,19.071 L33.314,24.354 C33.314,24.666 33.140,24.951 32.866,25.086 C32.756,25.140 32.638,25.167 32.520,25.167 C32.344,25.167 32.170,25.107 32.027,24.992 L25.403,19.634 L25.403,28.419 C25.403,29.763 24.334,30.857 23.020,30.857 L13.262,30.857 L5.939,36.778 C5.797,36.894 5.622,36.953 5.447,36.953 C5.329,36.953 5.210,36.926 5.101,36.873 C4.826,36.736 4.653,36.453 4.653,36.141 L4.653,30.857 L2.371,30.857 C1.057,30.857 -0.012,29.763 -0.012,28.419 L-0.012,14.213 C-0.012,12.868 1.057,11.774 2.371,11.774 L12.564,11.774 L12.564,2.426 C12.564,1.081 13.633,-0.012 14.946,-0.012 L35.596,-0.012 C36.910,-0.012 37.978,1.081 37.978,2.426 L37.978,16.632 C37.978,17.977 36.910,19.071 35.596,19.071 ZM1.577,14.213 L1.577,28.419 C1.577,28.867 1.933,29.231 2.371,29.231 L5.447,29.231 C5.886,29.231 6.241,29.595 6.241,30.044 L6.241,34.463 L12.493,29.407 C12.634,29.293 12.807,29.231 12.986,29.231 L23.020,29.231 C23.458,29.231 23.814,28.867 23.814,28.419 L23.814,14.213 C23.814,13.764 23.458,13.400 23.020,13.400 L2.371,13.400 C1.933,13.400 1.577,13.764 1.577,14.213 ZM36.390,2.426 C36.390,1.978 36.034,1.613 35.596,1.613 L14.946,1.613 C14.508,1.613 14.152,1.978 14.152,2.426 L14.152,11.774 L23.020,11.774 C24.334,11.774 25.403,12.868 25.403,14.213 L25.403,17.583 C25.426,17.598 25.453,17.602 25.475,17.620 L31.725,22.676 L31.725,18.258 C31.725,17.808 32.081,17.445 32.520,17.445 L35.596,17.445 C36.034,17.445 36.390,17.080 36.390,16.632 L36.390,2.426 Z" />
</svg>
