<svg xmlns="http://www.w3.org/2000/svg" xmlns:xlink="http://www.w3.org/1999/xlink" preserveAspectRatio="xMidYMid" width="36.71" height="30.5" viewBox="0 0 36.71 30.5">
  <path fill="#cc3333" d="M36.639,5.746 L36.728,7.475 L31.365,7.781 L31.670,13.295 L29.966,13.423 L29.657,7.394 L28.286,6.052 L28.506,10.351 L26.803,10.480 L26.523,4.603 C20.646,0.084 12.306,0.846 7.299,6.574 L5.265,8.886 L9.276,8.678 L9.362,10.352 L2.552,10.713 L2.215,3.701 L3.832,3.613 L4.057,7.785 L6.242,5.295 C6.242,5.295 6.252,5.292 6.256,5.291 C11.700,-0.770 20.550,-1.671 26.993,2.905 L27.002,2.874 L27.638,3.134 L33.476,2.802 L33.565,4.532 L29.398,4.772 L30.790,6.067 L36.639,5.746 ZM5.061,17.211 L6.765,17.083 L7.074,23.113 L8.445,24.455 L8.225,20.155 L9.929,20.026 L10.208,25.903 C16.085,30.422 24.426,29.660 29.432,23.932 L31.467,21.620 L27.455,21.828 L27.369,20.155 L34.180,19.793 L34.517,26.805 L32.899,26.893 L32.675,22.721 L30.489,25.211 C30.489,25.211 30.479,25.214 30.475,25.216 C25.031,31.277 16.181,32.177 9.738,27.601 L9.729,27.632 L9.094,27.373 L3.256,27.704 L3.167,25.975 L7.333,25.734 L5.942,24.439 L0.092,24.760 L0.003,23.031 L5.367,22.725 L5.061,17.211 Z"/>
</svg>
