<svg xmlns="http://www.w3.org/2000/svg" xmlns:xlink="http://www.w3.org/1999/xlink" preserveAspectRatio="xMidYMid" width="35.69" height="29.38" viewBox="0 0 35.69 29.38">
  <path fill="#cc3333" d="M30.017,21.498 C29.929,22.469 29.282,25.938 24.626,26.689 C24.214,28.236 22.631,29.392 20.740,29.392 C18.533,29.392 16.742,27.827 16.742,25.898 C16.742,23.969 18.533,22.404 20.740,22.404 C22.627,22.404 24.205,23.555 24.622,25.097 C28.444,24.351 28.460,21.399 28.458,21.263 C28.457,21.170 28.479,21.083 28.507,21.000 C28.483,20.924 28.459,20.847 28.459,20.763 L28.459,12.149 C28.459,6.321 23.693,1.578 17.834,1.578 C11.975,1.578 7.209,6.321 7.209,12.149 L7.209,20.763 C7.209,21.196 6.857,21.546 6.422,21.546 C6.376,21.546 6.335,21.527 6.291,21.519 C6.247,21.527 6.207,21.546 6.161,21.546 C2.761,21.546 -0.005,18.971 -0.005,15.805 C-0.005,12.745 2.584,10.259 5.824,10.092 C6.811,4.378 11.813,0.012 17.834,0.012 C23.855,0.012 28.858,4.378 29.845,10.092 C33.085,10.259 35.674,12.745 35.674,15.805 C35.674,18.808 33.175,21.252 30.017,21.498 ZM20.750,24.410 C19.645,24.410 18.750,25.081 18.750,25.910 C18.750,26.738 19.645,27.410 20.750,27.410 C21.855,27.410 22.750,26.738 22.750,25.910 C22.750,25.081 21.855,24.410 20.750,24.410 ZM1.569,15.805 C1.569,17.943 3.353,19.691 5.635,19.931 L5.635,12.149 C5.635,11.989 5.653,11.832 5.659,11.673 C3.366,11.904 1.569,13.658 1.569,15.805 ZM30.009,11.673 C30.016,11.832 30.034,11.989 30.034,12.149 L30.034,19.931 C32.315,19.691 34.099,17.943 34.099,15.805 C34.099,13.658 32.303,11.904 30.009,11.673 Z"/>
</svg>
