<svg xmlns="http://www.w3.org/2000/svg" xmlns:xlink="http://www.w3.org/1999/xlink" preserveAspectRatio="xMidYMid" width="128" height="81" viewBox="0 0 128 81">
  <path fill="#cc3333" d="M13.169,81.002 L13.169,71.684 L9.624,75.278 L5.937,71.779 L9.769,67.946 L0.000,67.946 L0.000,62.979 L14.941,62.979 L18.484,59.430 L8.668,59.430 L8.668,54.465 L23.464,54.465 L33.089,44.956 L27.293,39.186 C18.149,30.245 18.149,15.676 27.293,6.688 C36.297,-2.252 51.046,-2.252 60.239,6.688 L65.984,12.507 L71.923,6.688 C80.924,-2.252 95.720,-2.252 104.724,6.688 C113.868,15.676 113.868,30.245 104.724,39.186 L98.930,45.004 L123.015,68.845 L123.015,59.479 L127.995,59.479 L127.995,77.454 L109.847,77.454 L109.847,72.488 L119.662,72.488 L95.385,48.503 L65.984,77.454 L36.775,48.503 L26.816,58.202 L26.816,72.439 L21.836,72.439 L21.836,63.168 L18.291,66.716 L18.291,81.002 L13.169,81.002 ZM65.984,70.407 L91.841,45.004 L65.984,19.507 L40.319,44.956 L65.984,70.407 ZM36.631,41.457 L62.489,16.008 L56.503,10.236 C49.465,3.189 37.878,3.189 30.838,10.236 C23.751,17.237 23.751,28.638 30.838,35.685 L36.631,41.457 ZM95.385,41.457 L101.179,35.685 C108.219,28.638 108.219,17.237 101.179,10.236 C94.092,3.189 82.552,3.189 75.465,10.236 L69.529,16.008 L95.385,41.457 Z" />
</svg>
