<svg xmlns="http://www.w3.org/2000/svg" xmlns:xlink="http://www.w3.org/1999/xlink" preserveAspectRatio="xMidYMid" width="55" height="44.031" viewBox="0 0 55 44.031">

  <path fill="#cc3333" d="M54.368,22.024 L46.475,25.137 C46.773,25.311 46.983,25.618 46.983,25.985 L46.983,36.421 C46.983,36.857 46.696,37.245 46.273,37.376 L25.093,43.982 C24.992,44.013 24.889,44.029 24.786,44.029 C24.729,44.029 24.675,44.012 24.619,44.003 C24.560,44.014 24.501,44.029 24.440,44.029 C24.311,44.029 24.181,44.006 24.055,43.955 L7.705,37.349 C7.322,37.194 7.073,36.828 7.073,36.421 L7.073,26.762 C7.073,26.394 7.284,26.086 7.584,25.912 L0.633,23.170 C0.314,23.044 0.081,22.766 0.013,22.433 C-0.053,22.101 0.056,21.758 0.302,21.521 L6.376,15.704 C6.664,15.426 7.089,15.342 7.462,15.493 L25.163,22.469 C25.165,22.469 25.166,22.471 25.168,22.472 C25.312,22.530 25.434,22.623 25.536,22.736 C25.565,22.767 25.582,22.804 25.607,22.839 C25.670,22.928 25.717,23.023 25.748,23.130 C25.756,23.157 25.778,23.177 25.784,23.205 C25.789,23.232 25.776,23.258 25.779,23.285 C25.784,23.324 25.803,23.358 25.803,23.399 L25.803,41.658 L44.949,35.686 L44.949,25.985 C44.949,25.890 44.979,25.804 45.004,25.717 L36.703,28.990 C36.581,29.039 36.452,29.063 36.325,29.063 C36.086,29.063 35.849,28.979 35.661,28.820 L29.460,23.549 C29.191,23.320 29.063,22.970 29.121,22.625 C29.180,22.279 29.416,21.989 29.746,21.860 L47.403,14.893 C47.759,14.754 48.158,14.821 48.445,15.064 L54.654,20.334 C54.923,20.564 55.052,20.914 54.993,21.259 C54.935,21.605 54.698,21.895 54.368,22.024 ZM9.107,26.762 L9.107,35.749 L23.769,41.672 L23.769,25.771 L19.417,29.940 C19.223,30.126 18.968,30.224 18.708,30.224 C18.581,30.224 18.453,30.200 18.331,30.152 L9.051,26.491 C9.077,26.579 9.107,26.666 9.107,26.762 ZM7.320,17.595 L2.844,21.883 L18.473,28.049 L22.953,23.757 L7.320,17.595 ZM47.586,16.981 L32.056,23.107 L36.521,26.903 L52.058,20.777 L47.586,16.981 ZM46.691,14.543 C46.497,14.729 46.241,14.827 45.982,14.827 C45.855,14.827 45.727,14.803 45.605,14.754 L27.912,7.782 C27.592,7.657 27.359,7.381 27.292,7.048 C27.225,6.713 27.333,6.371 27.580,6.134 L33.658,0.305 C33.946,0.027 34.372,-0.059 34.744,0.094 L52.437,7.074 C52.757,7.199 52.990,7.477 53.058,7.810 C53.124,8.143 53.015,8.485 52.769,8.722 L46.691,14.543 ZM34.602,2.196 L30.121,6.494 L45.747,12.652 L50.228,8.360 L34.602,2.196 ZM25.505,8.192 L7.844,15.152 C7.722,15.201 7.594,15.224 7.466,15.224 C7.227,15.224 6.991,15.140 6.803,14.982 L0.594,9.715 C0.325,9.486 0.196,9.135 0.255,8.791 C0.313,8.444 0.551,8.154 0.880,8.025 L18.545,1.065 C18.899,0.922 19.299,0.992 19.586,1.235 L25.791,6.502 C26.060,6.731 26.189,7.081 26.130,7.426 C26.072,7.772 25.834,8.062 25.505,8.192 ZM18.727,3.152 L3.191,9.272 L7.662,13.065 L23.195,6.944 L18.727,3.152 Z" />
</svg>
