<svg xmlns="http://www.w3.org/2000/svg" xmlns:xlink="http://www.w3.org/1999/xlink" preserveAspectRatio="xMidYMid" width="32" height="34" viewBox="0 0 32 34">
  <path fill="#cc3333" d="M32.002,9.173 L32.007,9.176 L32.002,9.186 L32.002,24.980 L29.322,26.374 L16.333,33.993 L16.000,33.407 L15.667,33.993 L2.744,26.412 L-0.010,24.980 L-0.010,8.327 L12.807,1.659 L15.652,-0.010 L15.735,0.136 L15.996,0.001 L16.263,0.140 L16.348,-0.010 L19.258,1.698 L32.002,8.327 L32.002,9.173 ZM1.413,23.999 L5.956,26.663 L15.644,31.734 L15.644,17.840 L1.546,9.898 L1.413,9.976 L1.413,23.999 ZM8.572,5.363 L2.940,9.080 L16.381,16.653 L17.067,16.653 L16.067,16.664 L22.255,13.207 L8.572,5.363 ZM23.631,12.640 L29.527,9.355 L16.000,1.419 L9.949,4.796 L23.631,12.640 ZM26.311,12.875 L22.044,15.377 L17.067,18.297 L17.067,31.358 L26.107,26.626 L30.579,24.003 L30.579,10.371 L26.311,12.875 Z"/>
</svg>
