<svg xmlns="http://www.w3.org/2000/svg" xmlns:xlink="http://www.w3.org/1999/xlink" preserveAspectRatio="xMidYMid" width="40.84" height="31" viewBox="0 0 40.84 31">
  <path fill="#cc3333" d="M39.382,19.003 L35.787,14.541 C36.137,20.223 33.355,25.884 28.090,28.923 C22.356,32.234 15.397,31.450 10.552,27.502 L12.420,26.424 C16.600,29.451 22.331,29.939 27.090,27.191 C31.599,24.588 33.996,19.775 33.786,14.909 L30.053,18.124 L28.841,16.621 L35.385,10.985 L40.836,17.751 L39.382,19.003 ZM13.590,3.809 C9.066,6.420 6.668,11.256 6.896,16.137 L11.149,12.595 L12.401,14.098 L5.635,19.733 L0.000,12.968 L1.504,11.715 L4.859,15.744 C4.775,10.306 7.546,4.989 12.590,2.076 C18.324,-1.234 25.283,-0.450 30.128,3.498 L28.260,4.576 C24.080,1.549 18.349,1.061 13.590,3.809 Z"/>
</svg>
