<svg xmlns="http://www.w3.org/2000/svg" xmlns:xlink="http://www.w3.org/1999/xlink" preserveAspectRatio="xMidYMid" width="33.97" height="28.031" viewBox="0 0 33.97 28.031">
  <path fill="#cc3333" d="M33.953,6.229 L30.958,16.623 C30.899,17.538 30.130,18.239 29.161,18.239 L10.956,18.239 L10.338,20.215 C11.656,20.705 12.650,21.858 12.911,23.263 L21.442,23.263 C21.790,21.388 23.443,19.961 25.432,19.961 C27.673,19.961 29.497,21.770 29.497,23.993 C29.497,26.215 27.673,28.025 25.432,28.025 C23.442,28.025 21.790,26.597 21.442,24.722 L12.911,24.722 C12.563,26.597 10.910,28.025 8.920,28.025 C6.679,28.025 4.856,26.215 4.856,23.993 C4.856,21.785 6.655,19.990 8.875,19.965 L9.641,17.518 L4.617,2.571 L0.517,1.410 C0.127,1.301 -0.100,0.896 0.012,0.509 C0.124,0.122 0.532,-0.107 0.921,0.008 L5.393,1.275 C5.627,1.340 5.812,1.517 5.889,1.745 L7.084,5.298 L33.246,5.298 C33.476,5.298 33.694,5.405 33.833,5.589 C33.971,5.772 34.016,6.008 33.953,6.229 ZM25.432,26.566 C26.863,26.566 28.026,25.412 28.026,23.993 C28.026,22.573 26.863,21.420 25.432,21.420 C24.001,21.420 22.838,22.573 22.838,23.993 C22.838,25.412 24.001,26.566 25.432,26.566 ZM8.920,21.420 C7.490,21.420 6.326,22.573 6.326,23.993 C6.326,25.412 7.490,26.566 8.920,26.566 C10.351,26.566 11.514,25.412 11.514,23.993 C11.514,22.573 10.351,21.420 8.920,21.420 ZM7.792,6.757 L10.955,16.781 L29.161,16.781 C29.283,16.781 29.491,16.723 29.491,16.507 C29.491,16.439 29.500,16.372 29.519,16.306 L32.270,6.757 L7.792,6.757 Z"/>
</svg>
