<svg xmlns="http://www.w3.org/2000/svg" xmlns:xlink="http://www.w3.org/1999/xlink" preserveAspectRatio="xMidYMid" width="35.69" height="28.41" viewBox="0 0 35.69 28.41">
  <defs>
    <style>
      .cls-1 {
        fill: #c33;
        fill-rule: evenodd;
      }
    </style>
  </defs>
  <path d="M30.017,21.498 C29.926,22.502 29.229,26.167 24.135,26.749 C23.784,27.708 22.867,28.397 21.785,28.397 C20.400,28.397 19.276,27.280 19.276,25.902 C19.276,24.524 20.400,23.406 21.785,23.406 C22.909,23.406 23.853,24.151 24.171,25.169 C28.439,24.576 28.460,21.404 28.458,21.263 C28.457,21.170 28.479,21.083 28.507,21.000 C28.483,20.924 28.459,20.847 28.459,20.763 L28.459,12.150 C28.459,6.321 23.693,1.578 17.834,1.578 C11.975,1.578 7.209,6.321 7.209,12.150 L7.209,20.763 C7.209,21.196 6.857,21.546 6.422,21.546 C6.376,21.546 6.335,21.527 6.291,21.520 C6.247,21.527 6.207,21.546 6.161,21.546 C2.761,21.546 -0.005,18.971 -0.005,15.805 C-0.005,12.745 2.584,10.259 5.824,10.092 C6.811,4.378 11.814,0.013 17.834,0.013 C23.855,0.013 28.858,4.378 29.845,10.092 C33.085,10.259 35.674,12.745 35.674,15.805 C35.674,18.808 33.175,21.252 30.017,21.498 ZM1.569,15.805 C1.569,17.943 3.353,19.691 5.635,19.931 L5.635,12.150 C5.635,11.989 5.653,11.832 5.659,11.673 C3.366,11.904 1.569,13.658 1.569,15.805 ZM30.009,11.673 C30.016,11.832 30.034,11.989 30.034,12.150 L30.034,19.931 C32.315,19.691 34.099,17.943 34.099,15.805 C34.099,13.658 32.303,11.904 30.009,11.673 Z" class="cls-1"/>
</svg>
