<svg xmlns="http://www.w3.org/2000/svg" xmlns:xlink="http://www.w3.org/1999/xlink" preserveAspectRatio="xMidYMid" width="65" height="65" viewBox="0 0 65 65">
  <g>
    <circle fill="#ffffff" cx="32.5" cy="32.5" r="32.5"/>
    <path fill="#000000" d="M43.901,35.602 L43.901,24.986 L36.395,24.986 L36.395,35.602 L34.952,35.602 L34.952,14.015 L36.395,14.015 L36.395,23.598 L43.901,23.598 L43.901,14.015 L45.343,14.015 L45.343,35.602 L43.901,35.602 ZM25.740,35.897 C24.003,35.897 22.679,35.267 21.766,34.007 C20.854,32.747 20.397,30.941 20.397,28.588 L20.397,14.015 L21.854,14.015 L21.854,28.766 C21.854,30.636 22.190,32.061 22.863,33.040 C23.535,34.020 24.494,34.509 25.740,34.509 C26.976,34.509 27.913,34.020 28.551,33.040 C29.189,32.061 29.508,30.616 29.508,28.707 L29.508,14.015 L30.950,14.015 L30.950,28.588 C30.950,33.461 29.213,35.897 25.740,35.897 Z"/>
    <path fill="#000000" d="M38.886,51.862 C36.626,51.862 33.567,49.659 32.389,47.333 C31.222,49.659 28.192,51.862 25.953,51.862 C18.524,51.862 13.768,49.967 8.989,41.742 C19.911,45.854 24.934,40.371 27.761,40.371 C29.809,40.371 31.570,41.580 32.389,43.324 C33.216,41.580 34.994,40.371 37.061,40.371 C39.915,40.371 44.985,45.854 56.011,41.742 C51.187,49.967 46.386,51.862 38.886,51.862 Z"/>
  </g>
</svg>
