<svg xmlns="http://www.w3.org/2000/svg" xmlns:xlink="http://www.w3.org/1999/xlink" preserveAspectRatio="xMidYMid" width="362.969" height="94" viewBox="0 0 362.969 94">
  <defs>
    <style>
      .cls-1, .cls-3 {
        fill: #000;
      }

      .cls-2 {
        fill: #fff;
      }

      .cls-2, .cls-3, .cls-4 {
        fill-rule: evenodd;
      }

      .cls-4 {
        fill: #666;
      }
    </style>
  </defs>
  <g>
    <circle fill="#000000" cx="47" cy="47" r="47" class="cls-1"/>
    <path fill="#ffffff" d="M64.346,51.486 L64.346,36.741 L53.920,36.741 L53.920,51.486 L51.917,51.486 L51.917,21.503 L53.920,21.503 L53.920,34.813 L64.346,34.813 L64.346,21.503 L66.349,21.503 L66.349,51.486 L64.346,51.486 ZM36.153,51.896 C33.741,51.896 31.901,51.021 30.634,49.271 C29.366,47.521 28.733,45.012 28.733,41.744 L28.733,21.503 L30.756,21.503 L30.756,41.991 C30.756,44.588 31.223,46.567 32.157,47.928 C33.090,49.288 34.422,49.968 36.153,49.968 C37.870,49.968 39.171,49.288 40.057,47.928 C40.943,46.567 41.386,44.561 41.386,41.909 L41.386,21.503 L43.390,21.503 L43.390,41.744 C43.390,48.512 40.977,51.896 36.153,51.896 Z" class="cls-2"/>
    <path fill="#ffffff" d="M56.236,75.000 C52.967,75.000 48.544,71.815 46.840,68.451 C45.152,71.815 40.770,75.000 37.532,75.000 C26.789,75.000 19.910,72.259 13.000,60.365 C28.795,66.312 36.058,58.382 40.147,58.382 C43.108,58.382 45.655,60.131 46.840,62.652 C48.036,60.131 50.607,58.382 53.596,58.382 C57.723,58.382 65.056,66.312 81.000,60.365 C74.024,72.259 67.081,75.000 56.236,75.000 Z" class="cls-2"/>
    <path fill="#000000" d="M357.013,37.652 L362.960,51.229 L360.704,51.229 L355.106,38.124 L351.291,38.124 L351.291,51.229 L349.281,51.229 L349.281,21.246 L353.383,21.246 C356.308,21.246 358.448,21.937 359.802,23.317 C361.155,24.699 361.832,26.763 361.832,29.511 C361.832,31.589 361.463,33.298 360.725,34.638 C359.986,35.978 358.749,36.983 357.013,37.652 ZM358.274,24.712 C357.269,23.714 355.687,23.215 353.527,23.215 L351.291,23.215 L351.291,36.278 L354.101,36.278 C355.919,36.278 357.320,35.718 358.305,34.597 C359.289,33.476 359.781,31.808 359.781,29.593 C359.781,27.337 359.279,25.710 358.274,24.712 ZM330.387,21.246 L341.256,21.246 L341.256,23.174 L332.397,23.174 L332.397,34.556 L340.764,34.556 L340.764,36.484 L332.397,36.484 L332.397,49.301 L341.256,49.301 L341.256,51.229 L330.387,51.229 L330.387,21.246 ZM317.161,51.229 L315.151,51.229 L315.151,23.174 L309.183,23.174 L309.183,21.246 L323.128,21.246 L323.128,23.174 L317.161,23.174 L317.161,51.229 ZM296.988,35.109 C299.011,36.094 300.491,37.246 301.428,38.565 C302.364,39.885 302.832,41.487 302.832,43.374 C302.832,45.835 302.149,47.828 300.782,49.352 C299.414,50.877 297.678,51.639 295.573,51.639 C293.180,51.639 291.259,51.290 289.810,50.593 L289.810,48.419 C290.521,48.816 291.403,49.130 292.456,49.362 C293.508,49.595 294.547,49.711 295.573,49.711 C297.104,49.711 298.362,49.130 299.346,47.968 C300.331,46.806 300.823,45.329 300.823,43.538 C300.823,41.884 300.474,40.572 299.777,39.601 C299.080,38.630 297.747,37.660 295.778,36.689 C294.233,35.909 293.077,35.154 292.312,34.422 C291.546,33.691 290.979,32.840 290.610,31.869 C290.241,30.899 290.056,29.736 290.056,28.383 C290.056,26.906 290.357,25.594 290.958,24.445 C291.560,23.297 292.401,22.405 293.481,21.769 C294.561,21.133 295.743,20.816 297.029,20.816 C298.191,20.816 299.247,20.946 300.197,21.205 C301.147,21.465 301.896,21.745 302.443,22.046 L301.664,23.974 C300.146,23.194 298.601,22.805 297.029,22.805 C295.552,22.805 294.352,23.307 293.430,24.312 C292.507,25.317 292.045,26.647 292.045,28.301 C292.045,29.983 292.380,31.288 293.050,32.218 C293.720,33.148 295.032,34.112 296.988,35.109 ZM274.480,38.842 L272.348,38.842 L272.348,51.229 L270.338,51.229 L270.338,21.246 L274.439,21.246 C277.365,21.246 279.505,21.937 280.858,23.317 C282.212,24.699 282.889,26.879 282.889,29.859 C282.889,32.949 282.181,35.219 280.766,36.668 C279.351,38.117 277.256,38.842 274.480,38.842 ZM279.310,24.661 C278.291,23.615 276.716,23.092 274.583,23.092 L272.348,23.092 L272.348,36.996 L274.357,36.996 C276.709,36.996 278.377,36.442 279.361,35.335 C280.346,34.228 280.838,32.402 280.838,29.859 C280.838,27.440 280.328,25.707 279.310,24.661 ZM258.914,21.246 L260.924,21.246 L260.924,51.229 L258.914,51.229 L258.914,21.246 ZM247.486,36.484 L237.027,36.484 L237.027,51.229 L235.017,51.229 L235.017,21.246 L237.027,21.246 L237.027,34.556 L247.486,34.556 L247.486,21.246 L249.495,21.246 L249.495,51.229 L247.486,51.229 L247.486,36.484 ZM199.094,24.343 L198.930,24.343 C199.094,26.202 199.177,27.993 199.177,29.716 L199.177,51.229 L197.208,51.229 L197.208,21.246 L199.812,21.246 L211.071,47.824 L211.194,47.824 C211.084,45.582 211.030,43.709 211.030,42.205 L211.030,21.246 L212.999,21.246 L212.999,51.229 L210.435,51.229 L199.094,24.343 ZM185.421,40.359 L178.141,40.359 L175.536,51.229 L173.444,51.229 L180.663,21.246 L182.734,21.246 L190.117,51.229 L188.066,51.229 L185.421,40.359 ZM182.304,27.152 C182.030,25.895 181.818,24.705 181.668,23.584 C181.545,24.774 181.353,25.963 181.094,27.152 L178.530,38.329 L184.949,38.329 L182.304,27.152 ZM166.605,37.806 C167.438,38.975 167.856,40.606 167.856,42.697 C167.856,45.377 167.261,47.469 166.071,48.973 C164.882,50.477 163.214,51.229 161.068,51.229 L154.177,51.229 L154.177,21.246 L159.919,21.246 C162.270,21.246 164.079,21.848 165.343,23.051 C166.608,24.254 167.240,26.032 167.240,28.383 C167.240,32.443 165.757,34.768 162.790,35.356 L162.790,35.520 C164.499,35.875 165.771,36.637 166.605,37.806 ZM163.969,33.048 C164.769,32.016 165.169,30.447 165.169,28.342 C165.169,26.647 164.728,25.348 163.846,24.445 C162.965,23.543 161.655,23.092 159.919,23.092 L156.187,23.092 L156.187,34.597 L159.960,34.597 C161.833,34.597 163.170,34.081 163.969,33.048 ZM160.227,36.442 L156.187,36.442 L156.187,49.383 L160.801,49.383 C164.109,49.383 165.764,47.141 165.764,42.656 C165.764,40.660 165.278,39.126 164.308,38.052 C163.337,36.979 161.977,36.442 160.227,36.442 ZM144.419,51.229 L138.820,38.124 L135.006,38.124 L135.006,51.229 L132.996,51.229 L132.996,21.246 L137.098,21.246 C140.023,21.246 142.163,21.937 143.517,23.317 C144.870,24.699 145.547,26.763 145.547,29.511 C145.547,31.589 145.178,33.298 144.440,34.638 C143.701,35.978 142.464,36.983 140.728,37.652 L146.675,51.229 L144.419,51.229 ZM142.020,34.597 C143.004,33.476 143.496,31.808 143.496,29.593 C143.496,27.337 142.994,25.710 141.989,24.712 C140.984,23.714 139.401,23.215 137.241,23.215 L135.006,23.215 L135.006,36.278 L137.815,36.278 C139.634,36.278 141.035,35.718 142.020,34.597 ZM116.459,51.639 C114.039,51.639 112.193,50.764 110.922,49.014 C109.650,47.264 109.015,44.755 109.015,41.487 L109.015,21.246 L111.045,21.246 L111.045,41.734 C111.045,44.331 111.513,46.310 112.450,47.671 C113.386,49.031 114.723,49.711 116.459,49.711 C118.182,49.711 119.487,49.031 120.376,47.671 C121.265,46.310 121.709,44.304 121.709,41.651 L121.709,21.246 L123.719,21.246 L123.719,41.487 C123.719,48.255 121.299,51.639 116.459,51.639 Z" class="cls-3"/>
    <path fill="#666666" d="M349.305,73.229 L347.992,73.229 L350.586,61.072 L351.898,61.072 L349.305,73.229 ZM343.783,72.643 C343.142,73.117 342.418,73.354 341.611,73.354 C340.611,73.354 339.827,73.059 339.259,72.471 C338.692,71.882 338.408,71.078 338.408,70.057 C338.408,69.067 338.598,68.136 338.978,67.264 C339.358,66.391 339.871,65.722 340.517,65.256 C341.163,64.790 341.879,64.557 342.666,64.557 C343.655,64.557 344.436,64.850 345.009,65.436 C345.582,66.022 345.869,66.828 345.869,67.854 C345.869,68.833 345.681,69.757 345.306,70.627 C344.931,71.497 344.423,72.169 343.783,72.643 ZM344.021,66.217 C343.696,65.845 343.254,65.658 342.697,65.658 C342.129,65.658 341.620,65.851 341.170,66.236 C340.719,66.622 340.370,67.157 340.123,67.842 C339.875,68.527 339.752,69.289 339.752,70.127 C339.752,70.809 339.917,71.337 340.248,71.709 C340.578,72.082 341.054,72.268 341.673,72.268 C342.215,72.268 342.702,72.078 343.134,71.697 C343.567,71.317 343.904,70.777 344.146,70.076 C344.388,69.376 344.509,68.575 344.509,67.674 C344.509,67.075 344.347,66.589 344.021,66.217 ZM333.816,72.643 C333.175,73.117 332.451,73.354 331.644,73.354 C330.644,73.354 329.860,73.059 329.292,72.471 C328.725,71.882 328.441,71.078 328.441,70.057 C328.441,69.067 328.631,68.136 329.011,67.264 C329.391,66.391 329.904,65.722 330.550,65.256 C331.196,64.790 331.912,64.557 332.699,64.557 C333.688,64.557 334.469,64.850 335.042,65.436 C335.615,66.022 335.902,66.828 335.902,67.854 C335.902,68.833 335.714,69.757 335.339,70.627 C334.964,71.497 334.457,72.169 333.816,72.643 ZM334.054,66.217 C333.729,65.845 333.287,65.658 332.730,65.658 C332.162,65.658 331.653,65.851 331.203,66.236 C330.752,66.622 330.403,67.157 330.156,67.842 C329.908,68.527 329.785,69.289 329.785,70.127 C329.785,70.809 329.950,71.337 330.281,71.709 C330.611,72.082 331.087,72.268 331.707,72.268 C332.248,72.268 332.735,72.078 333.167,71.697 C333.600,71.317 333.937,70.777 334.179,70.076 C334.421,69.376 334.542,68.575 334.542,67.674 C334.542,67.075 334.380,66.589 334.054,66.217 ZM325.088,62.830 C324.182,62.830 323.371,63.083 322.654,63.588 C321.938,64.093 321.371,64.834 320.951,65.811 C320.532,66.787 320.322,67.851 320.322,69.002 C320.322,69.976 320.576,70.753 321.084,71.334 C321.592,71.915 322.291,72.205 323.182,72.205 C323.906,72.205 324.744,72.057 325.697,71.760 L325.697,72.924 C325.249,73.085 324.822,73.203 324.416,73.275 C324.010,73.348 323.520,73.385 322.947,73.385 C321.687,73.385 320.697,72.996 319.979,72.217 C319.260,71.438 318.901,70.377 318.901,69.033 C318.901,67.674 319.175,66.410 319.725,65.240 C320.274,64.071 321.013,63.179 321.940,62.565 C322.867,61.950 323.916,61.643 325.088,61.643 C326.114,61.643 327.020,61.851 327.807,62.268 L327.268,63.369 C326.549,63.010 325.822,62.830 325.088,62.830 ZM310.313,65.963 C309.787,65.739 309.214,65.627 308.594,65.627 C308.110,65.627 307.729,65.740 307.453,65.967 C307.177,66.193 307.039,66.486 307.039,66.846 C307.039,67.138 307.132,67.388 307.317,67.596 C307.502,67.804 307.883,68.072 308.461,68.400 C309.018,68.713 309.418,68.981 309.660,69.205 C309.903,69.429 310.084,69.670 310.203,69.928 C310.323,70.186 310.383,70.476 310.383,70.799 C310.383,71.611 310.095,72.246 309.520,72.701 C308.944,73.157 308.133,73.385 307.086,73.385 C306.206,73.385 305.412,73.205 304.703,72.846 L304.703,71.611 C305.068,71.830 305.461,71.999 305.883,72.119 C306.305,72.239 306.696,72.299 307.055,72.299 C307.711,72.299 308.206,72.169 308.539,71.908 C308.873,71.648 309.039,71.315 309.039,70.908 C309.039,70.611 308.948,70.361 308.766,70.158 C308.584,69.955 308.190,69.677 307.586,69.322 C306.909,68.942 306.430,68.570 306.149,68.205 C305.867,67.841 305.727,67.408 305.727,66.908 C305.727,66.190 305.990,65.610 306.516,65.170 C307.042,64.730 307.735,64.510 308.594,64.510 C309.485,64.510 310.344,64.703 311.172,65.088 L310.750,66.158 L310.313,65.963 ZM300.404,73.229 L300.608,71.596 L300.545,71.596 C299.613,72.789 298.631,73.385 297.600,73.385 C296.876,73.385 296.308,73.127 295.897,72.611 C295.485,72.096 295.279,71.390 295.279,70.494 C295.279,69.411 295.464,68.406 295.834,67.479 C296.204,66.552 296.714,65.825 297.365,65.299 C298.016,64.773 298.730,64.510 299.506,64.510 C299.985,64.510 300.412,64.639 300.787,64.897 C301.162,65.154 301.454,65.525 301.662,66.010 L301.748,66.010 L302.272,64.666 L303.264,64.666 L301.444,73.229 L300.404,73.229 ZM300.779,66.088 C300.488,65.770 300.105,65.611 299.631,65.611 C299.089,65.611 298.585,65.835 298.119,66.283 C297.653,66.731 297.287,67.338 297.022,68.104 C296.756,68.869 296.623,69.677 296.623,70.525 C296.623,71.119 296.746,71.563 296.990,71.858 C297.235,72.152 297.579,72.299 298.022,72.299 C298.527,72.299 299.029,72.058 299.529,71.576 C300.029,71.095 300.436,70.467 300.748,69.693 C301.061,68.920 301.217,68.145 301.217,67.369 C301.217,66.833 301.071,66.406 300.779,66.088 ZM288.591,73.229 L288.208,65.690 C288.166,64.981 288.146,64.247 288.146,63.486 L288.099,63.486 C287.968,63.861 287.810,64.264 287.622,64.693 C287.435,65.123 286.122,67.968 283.685,73.229 L282.325,73.229 L281.841,61.807 L283.169,61.807 L283.411,68.846 L283.427,69.533 C283.427,70.044 283.401,70.716 283.349,71.549 L283.396,71.549 C283.859,70.283 284.265,69.286 284.614,68.557 L287.778,61.807 L289.169,61.807 L289.505,68.525 C289.552,69.322 289.575,70.114 289.575,70.900 L289.567,71.549 L289.638,71.549 C290.028,70.382 290.369,69.460 290.661,68.783 L293.685,61.807 L295.106,61.807 L289.919,73.229 L288.591,73.229 ZM274.183,65.658 L272.050,65.658 L271.042,70.377 C270.948,70.830 270.901,71.174 270.901,71.408 C270.901,71.700 270.977,71.924 271.128,72.080 C271.279,72.236 271.490,72.315 271.761,72.315 C272.047,72.315 272.422,72.247 272.886,72.111 L272.886,73.119 C272.709,73.192 272.490,73.255 272.230,73.307 C271.969,73.359 271.761,73.385 271.605,73.385 C270.953,73.385 270.455,73.230 270.108,72.920 C269.762,72.610 269.589,72.148 269.589,71.533 C269.589,71.190 269.636,70.799 269.730,70.361 L270.722,65.658 L269.378,65.658 L269.487,65.088 L270.933,64.479 L271.909,62.697 L272.675,62.697 L272.245,64.666 L274.386,64.666 L274.183,65.658 ZM263.896,73.229 L266.326,61.807 L267.639,61.807 L265.209,73.229 L263.896,73.229 ZM251.496,69.486 L251.238,69.486 L251.207,70.111 C251.207,70.794 251.367,71.326 251.687,71.709 C252.008,72.092 252.504,72.283 253.176,72.283 C253.504,72.283 253.841,72.236 254.187,72.143 C254.534,72.049 254.965,71.877 255.480,71.627 L255.480,72.768 C254.991,72.997 254.559,73.157 254.184,73.248 C253.809,73.339 253.395,73.385 252.941,73.385 C251.983,73.385 251.230,73.101 250.684,72.533 C250.137,71.966 249.863,71.179 249.863,70.174 C249.863,69.195 250.057,68.256 250.445,67.358 C250.833,66.459 251.348,65.760 251.988,65.260 C252.629,64.760 253.335,64.510 254.105,64.510 C254.902,64.510 255.501,64.683 255.902,65.029 C256.303,65.376 256.504,65.859 256.504,66.479 C256.504,67.416 256.072,68.152 255.207,68.686 C254.342,69.220 253.105,69.486 251.496,69.486 ZM254.922,65.900 C254.732,65.718 254.434,65.627 254.027,65.627 C253.491,65.627 252.987,65.872 252.516,66.361 C252.044,66.851 251.684,67.531 251.434,68.400 L251.527,68.400 C252.715,68.400 253.625,68.246 254.258,67.936 C254.891,67.626 255.207,67.177 255.207,66.588 C255.207,66.312 255.112,66.083 254.922,65.900 ZM247.685,65.690 C247.211,65.690 246.767,65.846 246.353,66.158 C245.939,66.471 245.577,66.904 245.267,67.459 C244.958,68.014 244.730,68.630 244.584,69.307 L243.748,73.229 L242.435,73.229 L244.264,64.666 L245.350,64.666 L245.178,66.252 L245.256,66.252 C245.631,65.757 245.941,65.402 246.185,65.186 C246.430,64.970 246.687,64.803 246.955,64.686 C247.223,64.568 247.521,64.510 247.850,64.510 C248.209,64.510 248.521,64.546 248.787,64.619 L248.506,65.791 C248.230,65.723 247.956,65.690 247.685,65.690 ZM238.219,72.643 C237.578,73.117 236.854,73.354 236.047,73.354 C235.047,73.354 234.263,73.059 233.695,72.471 C233.127,71.882 232.844,71.078 232.844,70.057 C232.844,69.067 233.034,68.136 233.414,67.264 C233.794,66.391 234.307,65.722 234.953,65.256 C235.599,64.790 236.315,64.557 237.101,64.557 C238.091,64.557 238.872,64.850 239.445,65.436 C240.018,66.022 240.305,66.828 240.305,67.854 C240.305,68.833 240.117,69.757 239.742,70.627 C239.367,71.497 238.859,72.169 238.219,72.643 ZM238.457,66.217 C238.131,65.845 237.690,65.658 237.133,65.658 C236.565,65.658 236.056,65.851 235.605,66.236 C235.155,66.622 234.806,67.157 234.558,67.842 C234.311,68.527 234.187,69.289 234.187,70.127 C234.187,70.809 234.353,71.337 234.683,71.709 C235.014,72.082 235.489,72.268 236.109,72.268 C236.651,72.268 237.138,72.078 237.570,71.697 C238.002,71.317 238.340,70.777 238.582,70.076 C238.824,69.376 238.945,68.575 238.945,67.674 C238.945,67.075 238.782,66.589 238.457,66.217 ZM231.809,62.057 C231.356,62.057 231.008,62.183 230.766,62.436 C230.524,62.688 230.327,63.150 230.176,63.822 L229.981,64.666 L231.840,64.666 L231.645,65.658 L229.793,65.658 L227.981,74.236 C227.778,75.221 227.465,75.940 227.043,76.393 C226.621,76.846 226.067,77.072 225.379,77.072 C225.020,77.072 224.694,77.018 224.403,76.908 L224.403,75.807 C224.736,75.921 225.028,75.979 225.278,75.979 C225.674,75.979 225.978,75.817 226.192,75.494 C226.405,75.171 226.577,74.710 226.707,74.111 L228.481,65.658 L226.973,65.658 L227.075,65.135 L228.684,64.619 L228.864,63.838 C229.103,62.796 229.435,62.061 229.860,61.631 C230.284,61.201 230.913,60.986 231.746,60.986 C231.955,60.986 232.210,61.016 232.512,61.076 C232.814,61.136 233.048,61.203 233.215,61.275 L232.879,62.283 C232.483,62.132 232.127,62.057 231.809,62.057 ZM219.621,69.486 L219.363,69.486 L219.332,70.111 C219.332,70.794 219.492,71.326 219.813,71.709 C220.133,72.092 220.629,72.283 221.301,72.283 C221.629,72.283 221.966,72.236 222.313,72.143 C222.659,72.049 223.090,71.877 223.606,71.627 L223.606,72.768 C223.116,72.997 222.684,73.157 222.309,73.248 C221.934,73.339 221.520,73.385 221.066,73.385 C220.108,73.385 219.356,73.101 218.809,72.533 C218.262,71.966 217.988,71.179 217.988,70.174 C217.988,69.195 218.182,68.256 218.570,67.358 C218.958,66.459 219.473,65.760 220.113,65.260 C220.754,64.760 221.460,64.510 222.231,64.510 C223.027,64.510 223.626,64.683 224.027,65.029 C224.428,65.376 224.629,65.859 224.629,66.479 C224.629,67.416 224.197,68.152 223.332,68.686 C222.467,69.220 221.231,69.486 219.621,69.486 ZM223.047,65.900 C222.857,65.718 222.559,65.627 222.152,65.627 C221.616,65.627 221.112,65.872 220.641,66.361 C220.169,66.851 219.809,67.531 219.559,68.400 L219.652,68.400 C220.840,68.400 221.750,68.246 222.383,67.936 C223.016,67.626 223.332,67.177 223.332,66.588 C223.332,66.312 223.237,66.083 223.047,65.900 ZM213.364,67.275 L213.364,67.354 C213.963,67.520 214.423,67.808 214.743,68.217 C215.064,68.626 215.224,69.117 215.224,69.690 C215.224,70.794 214.828,71.660 214.036,72.287 C213.245,72.915 212.185,73.229 210.857,73.229 L207.239,73.229 L209.654,61.807 L212.583,61.807 C214.833,61.807 215.958,62.682 215.958,64.432 C215.958,65.166 215.732,65.786 215.279,66.291 C214.825,66.796 214.187,67.124 213.364,67.275 ZM208.810,72.096 L210.888,72.096 C211.831,72.096 212.555,71.886 213.060,71.467 C213.565,71.048 213.818,70.455 213.818,69.690 C213.818,69.085 213.624,68.623 213.236,68.303 C212.848,67.983 212.289,67.822 211.560,67.822 L209.716,67.822 L208.810,72.096 ZM214.048,63.358 C213.702,63.089 213.156,62.955 212.411,62.955 L210.763,62.955 L209.958,66.697 L211.896,66.697 C212.708,66.697 213.357,66.507 213.841,66.127 C214.325,65.747 214.568,65.229 214.568,64.572 C214.568,64.031 214.394,63.626 214.048,63.358 ZM194.839,69.486 L194.581,69.486 L194.550,70.111 C194.550,70.794 194.710,71.326 195.031,71.709 C195.351,72.092 195.847,72.283 196.519,72.283 C196.847,72.283 197.184,72.236 197.531,72.143 C197.877,72.049 198.308,71.877 198.824,71.627 L198.824,72.768 C198.334,72.997 197.902,73.157 197.527,73.248 C197.152,73.339 196.738,73.385 196.284,73.385 C195.326,73.385 194.574,73.101 194.027,72.533 C193.480,71.966 193.206,71.179 193.206,70.174 C193.206,69.195 193.400,68.256 193.788,67.358 C194.176,66.459 194.691,65.760 195.331,65.260 C195.972,64.760 196.678,64.510 197.449,64.510 C198.245,64.510 198.844,64.683 199.245,65.029 C199.646,65.376 199.847,65.859 199.847,66.479 C199.847,67.416 199.415,68.152 198.550,68.686 C197.685,69.220 196.449,69.486 194.839,69.486 ZM198.265,65.900 C198.075,65.718 197.777,65.627 197.370,65.627 C196.834,65.627 196.330,65.872 195.859,66.361 C195.387,66.851 195.027,67.531 194.777,68.400 L194.870,68.400 C196.058,68.400 196.968,68.246 197.601,67.936 C198.234,67.626 198.550,67.177 198.550,66.588 C198.550,66.312 198.455,66.083 198.265,65.900 ZM189.774,65.611 C189.191,65.611 188.658,65.811 188.176,66.209 C187.695,66.608 187.317,67.162 187.044,67.873 C186.770,68.584 186.633,69.356 186.633,70.190 C186.633,70.856 186.806,71.374 187.153,71.744 C187.499,72.114 187.977,72.299 188.587,72.299 C188.962,72.299 189.316,72.247 189.649,72.143 C189.982,72.039 190.310,71.916 190.633,71.775 L190.633,72.893 C189.988,73.221 189.269,73.385 188.477,73.385 C187.467,73.385 186.683,73.106 186.126,72.549 C185.568,71.992 185.290,71.205 185.290,70.190 C185.290,69.148 185.482,68.187 185.868,67.307 C186.253,66.427 186.786,65.740 187.465,65.248 C188.145,64.756 188.909,64.510 189.758,64.510 C190.472,64.510 191.170,64.643 191.852,64.908 L191.485,66.010 C190.860,65.744 190.290,65.611 189.774,65.611 ZM181.404,73.229 L180.076,73.229 L181.232,67.822 C181.337,67.281 181.389,66.906 181.389,66.697 C181.389,66.369 181.296,66.106 181.111,65.908 C180.926,65.710 180.631,65.611 180.225,65.611 C179.761,65.611 179.309,65.768 178.869,66.080 C178.429,66.393 178.041,66.838 177.705,67.416 C177.369,67.994 177.115,68.695 176.943,69.518 L176.154,73.229 L174.842,73.229 L176.670,64.666 L177.756,64.666 L177.584,66.252 L177.662,66.252 C178.162,65.617 178.645,65.167 179.111,64.904 C179.577,64.641 180.061,64.510 180.561,64.510 C181.222,64.510 181.744,64.691 182.127,65.053 C182.510,65.415 182.701,65.921 182.701,66.572 C182.701,66.984 182.641,67.453 182.521,67.979 L181.404,73.229 ZM172.805,63.213 C172.597,63.213 172.425,63.149 172.290,63.022 C172.154,62.894 172.087,62.713 172.087,62.479 C172.087,62.187 172.170,61.949 172.337,61.764 C172.503,61.579 172.719,61.486 172.985,61.486 C173.443,61.486 173.673,61.721 173.673,62.190 C173.673,62.476 173.585,62.718 173.411,62.916 C173.236,63.114 173.034,63.213 172.805,63.213 ZM171.204,73.229 L169.891,73.229 L171.719,64.666 L173.032,64.666 L171.204,73.229 ZM167.169,63.002 C166.742,62.888 166.348,62.830 165.989,62.830 C165.291,62.830 164.730,63.011 164.305,63.373 C163.881,63.735 163.669,64.226 163.669,64.846 C163.669,65.127 163.713,65.368 163.801,65.568 C163.890,65.769 164.031,65.958 164.223,66.135 C164.416,66.312 164.786,66.559 165.333,66.877 C166.098,67.335 166.615,67.695 166.884,67.955 C167.152,68.216 167.355,68.503 167.493,68.818 C167.631,69.134 167.700,69.499 167.700,69.916 C167.700,71.015 167.334,71.868 166.602,72.475 C165.870,73.082 164.841,73.385 163.512,73.385 C162.960,73.385 162.475,73.347 162.055,73.272 C161.636,73.196 161.242,73.070 160.872,72.893 L160.872,71.565 C161.716,72.002 162.601,72.221 163.528,72.221 C164.372,72.221 165.041,72.024 165.536,71.631 C166.031,71.238 166.278,70.697 166.278,70.010 C166.278,69.604 166.141,69.246 165.868,68.936 C165.594,68.626 165.085,68.260 164.341,67.838 C163.554,67.395 163.009,66.953 162.704,66.510 C162.399,66.067 162.247,65.544 162.247,64.940 C162.247,63.966 162.591,63.173 163.278,62.561 C163.966,61.949 164.869,61.643 165.989,61.643 C166.505,61.643 166.985,61.692 167.430,61.791 C167.876,61.890 168.346,62.059 168.841,62.299 L168.325,63.471 C167.981,63.273 167.596,63.117 167.169,63.002 ZM151.831,63.533 L151.011,63.533 L151.011,63.322 C151.302,63.010 151.629,62.615 151.991,62.139 C152.353,61.662 152.630,61.273 152.823,60.971 L154.307,60.971 L154.307,61.135 C154.109,61.390 153.745,61.783 153.214,62.315 C152.682,62.846 152.222,63.252 151.831,63.533 ZM151.448,64.510 C152.245,64.510 152.844,64.683 153.245,65.029 C153.646,65.376 153.847,65.859 153.847,66.479 C153.847,67.416 153.414,68.152 152.550,68.686 C151.685,69.220 150.448,69.486 148.839,69.486 L148.581,69.486 L148.550,70.111 C148.550,70.794 148.710,71.326 149.030,71.709 C149.350,72.092 149.847,72.283 150.518,72.283 C150.847,72.283 151.184,72.236 151.530,72.143 C151.876,72.049 152.307,71.877 152.823,71.627 L152.823,72.768 C152.333,72.997 151.901,73.157 151.526,73.248 C151.151,73.339 150.737,73.385 150.284,73.385 C149.326,73.385 148.573,73.101 148.026,72.533 C147.479,71.966 147.206,71.179 147.206,70.174 C147.206,69.195 147.400,68.256 147.788,67.358 C148.176,66.459 148.690,65.760 149.331,65.260 C149.972,64.760 150.677,64.510 151.448,64.510 ZM148.776,68.400 L148.870,68.400 C150.057,68.400 150.968,68.246 151.600,67.936 C152.233,67.626 152.550,67.177 152.550,66.588 C152.550,66.312 152.455,66.083 152.264,65.900 C152.074,65.718 151.776,65.627 151.370,65.627 C150.833,65.627 150.330,65.872 149.858,66.361 C149.387,66.851 149.026,67.531 148.776,68.400 ZM143.305,73.229 L141.992,73.229 L143.149,67.822 C143.242,67.333 143.289,66.981 143.289,66.768 C143.289,65.997 142.906,65.611 142.141,65.611 C141.677,65.611 141.225,65.765 140.785,66.072 C140.345,66.380 139.957,66.826 139.621,67.412 C139.285,67.998 139.031,68.705 138.860,69.533 L138.071,73.229 L136.758,73.229 L139.336,61.072 L140.649,61.072 C140.555,61.499 140.465,61.914 140.379,62.315 C140.293,62.716 140.205,63.123 140.113,63.537 C140.022,63.951 139.923,64.385 139.817,64.838 C139.710,65.291 139.586,65.783 139.446,66.315 L139.531,66.315 C140.021,65.674 140.504,65.216 140.981,64.940 C141.457,64.664 141.956,64.525 142.477,64.525 C143.159,64.525 143.686,64.713 144.059,65.088 C144.431,65.463 144.617,65.994 144.617,66.682 C144.617,67.005 144.557,67.437 144.438,67.979 C144.235,68.984 143.857,70.734 143.305,73.229 ZM133.395,65.611 C132.812,65.611 132.279,65.811 131.797,66.209 C131.316,66.608 130.938,67.162 130.665,67.873 C130.391,68.584 130.255,69.356 130.255,70.190 C130.255,70.856 130.428,71.374 130.774,71.744 C131.120,72.114 131.598,72.299 132.208,72.299 C132.583,72.299 132.937,72.247 133.270,72.143 C133.603,72.039 133.932,71.916 134.255,71.775 L134.255,72.893 C133.609,73.221 132.890,73.385 132.098,73.385 C131.088,73.385 130.304,73.106 129.747,72.549 C129.189,71.992 128.911,71.205 128.911,70.190 C128.911,69.148 129.103,68.187 129.489,67.307 C129.874,66.427 130.407,65.740 131.087,65.248 C131.766,64.756 132.531,64.510 133.380,64.510 C134.093,64.510 134.791,64.643 135.473,64.908 L135.106,66.010 C134.481,65.744 133.911,65.611 133.395,65.611 ZM126.541,63.213 C126.332,63.213 126.161,63.149 126.025,63.022 C125.890,62.894 125.822,62.713 125.822,62.479 C125.822,62.187 125.905,61.949 126.072,61.764 C126.239,61.579 126.455,61.486 126.721,61.486 C127.179,61.486 127.408,61.721 127.408,62.190 C127.408,62.476 127.321,62.718 127.146,62.916 C126.972,63.114 126.770,63.213 126.541,63.213 ZM124.939,73.229 L123.627,73.229 L125.455,64.666 L126.767,64.666 L124.939,73.229 ZM118.677,73.229 L121.270,61.072 L122.583,61.072 L119.989,73.229 L118.677,73.229 ZM115.359,62.830 C114.453,62.830 113.642,63.083 112.926,63.588 C112.210,64.093 111.642,64.834 111.223,65.811 C110.803,66.787 110.594,67.851 110.594,69.002 C110.594,69.976 110.848,70.753 111.355,71.334 C111.863,71.915 112.563,72.205 113.453,72.205 C114.177,72.205 115.016,72.057 115.969,71.760 L115.969,72.924 C115.521,73.085 115.094,73.203 114.687,73.275 C114.281,73.348 113.792,73.385 113.219,73.385 C111.958,73.385 110.969,72.996 110.250,72.217 C109.531,71.438 109.172,70.377 109.172,69.033 C109.172,67.674 109.447,66.410 109.996,65.240 C110.546,64.071 111.284,63.179 112.211,62.565 C113.138,61.950 114.187,61.643 115.359,61.643 C116.385,61.643 117.292,61.851 118.078,62.268 L117.539,63.369 C116.820,63.010 116.094,62.830 115.359,62.830 Z" class="cls-4"/>
  </g>
</svg>
