<?xml version="1.0" encoding="utf-8"?>
<!-- Generator: Adobe Illustrator 16.0.0, SVG Export Plug-In . SVG Version: 6.00 Build 0)  -->
<!DOCTYPE svg PUBLIC "-//W3C//DTD SVG 1.1//EN" "http://www.w3.org/Graphics/SVG/1.1/DTD/svg11.dtd">
<svg version="1.1" id="Layer_1" xmlns="http://www.w3.org/2000/svg" xmlns:xlink="http://www.w3.org/1999/xlink" x="0px" y="0px"
	 width="65px" height="65px" viewBox="0 0 65 65" enable-background="new 0 0 65 65" xml:space="preserve">
<g opacity="0.1">
	<circle cx="32.5" cy="32.5" r="32.5"/>
	<path fill="#FFFFFF" d="M43.9,35.602V24.986h-7.506v10.616h-1.442V14.015h1.442v9.583H43.9v-9.583h1.442v21.586H43.9z
		 M25.74,35.896c-1.737,0-3.061-0.629-3.974-1.89c-0.912-1.26-1.369-3.066-1.369-5.419V14.015h1.457v14.751
		c0,1.87,0.336,3.295,1.009,4.274c0.672,0.979,1.631,1.469,2.877,1.469c1.236,0,2.173-0.489,2.811-1.469
		c0.638-0.979,0.957-2.424,0.957-4.333V14.015h1.442v14.573C30.95,33.461,29.213,35.896,25.74,35.896z"/>
	<path fill="#FFFFFF" d="M38.887,51.861c-2.261,0-5.32-2.202-6.498-4.528c-1.167,2.326-4.197,4.528-6.436,4.528
		c-7.429,0-12.185-1.895-16.964-10.119c10.922,4.111,15.945-1.371,18.772-1.371c2.048,0,3.809,1.209,4.628,2.953
		c0.827-1.744,2.605-2.953,4.671-2.953c2.854,0,7.924,5.482,18.951,1.371C51.188,49.967,46.387,51.861,38.887,51.861z"/>
</g>
</svg>
