<svg xmlns="http://www.w3.org/2000/svg" xmlns:xlink="http://www.w3.org/1999/xlink" preserveAspectRatio="xMidYMid" width="79.099" height="7.907" viewBox="0 0 79.099 7.907">
  <path fill="#ffffff" d="M66.175,7.654 C69.665,7.323 72.412,6.906 74.414,6.396 C76.261,5.926 77.521,5.465 78.203,5.013 C78.879,4.559 79.175,4.205 79.084,3.950 L78.622,4.067 L77.930,4.243 C77.313,4.400 76.678,4.385 76.027,4.203 C75.372,4.019 74.064,3.759 72.099,3.420 C72.406,3.342 72.850,3.298 73.437,3.289 C74.020,3.279 74.545,3.217 75.007,3.100 L75.237,3.041 L75.306,3.233 C75.612,3.155 75.854,3.127 76.032,3.153 C76.206,3.178 76.449,3.152 76.759,3.073 C76.911,3.034 76.978,2.981 76.956,2.918 C76.933,2.852 76.998,2.803 77.153,2.763 L77.221,2.955 L77.615,2.646 L77.872,1.951 L78.333,1.834 L78.496,1.583 C78.186,1.662 77.740,1.703 77.158,1.714 C76.571,1.722 76.027,1.719 75.521,1.711 L75.059,1.828 L74.461,1.561 L74.230,1.620 L73.700,1.545 L72.708,1.588 L71.716,1.630 L71.580,1.245 C71.424,1.285 71.359,1.334 71.383,1.400 C71.405,1.463 71.337,1.517 71.186,1.555 L70.887,1.422 L70.425,1.539 C69.717,1.438 69.111,1.382 68.604,1.373 C68.096,1.362 67.509,1.370 66.851,1.400 L66.689,1.651 L66.390,1.518 L64.637,1.544 L63.876,1.528 L63.645,1.587 L63.414,1.645 C63.259,1.685 63.206,1.767 63.251,1.897 L62.952,1.763 L62.884,1.571 L62.422,1.688 L62.123,1.554 C59.647,1.205 57.243,1.047 54.907,1.084 C52.568,1.119 50.054,1.129 47.366,1.115 L46.905,1.233 C46.750,1.272 46.467,1.308 46.062,1.342 C45.653,1.374 45.348,1.347 45.152,1.259 L44.853,1.126 L44.921,1.318 L44.853,1.126 L44.690,1.377 L44.391,1.243 L44.323,1.051 L44.160,1.302 L43.929,1.361 L43.861,1.169 C43.815,1.039 43.690,0.930 43.494,0.842 L43.032,0.960 L43.237,1.537 L42.937,1.403 L43.032,0.960 C41.706,1.015 40.771,0.975 40.219,0.837 C40.264,0.963 40.208,1.049 40.056,1.088 L39.988,0.895 L39.757,0.954 L39.526,1.013 L39.757,0.954 C39.159,0.687 38.526,0.566 37.868,0.596 C37.205,0.624 36.853,0.573 36.808,0.446 L36.577,0.505 C36.422,0.545 36.295,0.541 36.197,0.497 C36.094,0.451 35.968,0.450 35.816,0.489 L35.585,0.548 C34.215,0.477 32.837,0.372 31.447,0.238 C30.054,0.101 29.229,0.137 28.968,0.344 L29.199,0.286 C28.889,0.365 28.674,0.347 28.553,0.240 C28.428,0.131 28.191,0.050 27.840,0.002 L27.677,0.253 C27.275,0.074 26.974,0.046 26.767,0.171 C26.558,0.293 26.253,0.265 25.856,0.087 C25.901,0.214 25.845,0.300 25.693,0.339 L25.462,0.397 L25.232,0.456 C25.095,0.072 24.717,-0.042 24.103,0.114 C23.486,0.271 22.980,0.262 22.581,0.082 L22.718,0.467 L23.017,0.600 L22.555,0.718 L22.623,0.910 L22.555,0.718 L22.393,0.969 L22.093,0.835 L21.726,0.509 L22.487,0.525 L22.188,0.392 L22.351,0.141 C21.844,0.132 21.372,0.111 20.944,0.079 C20.513,0.051 20.068,0.093 19.606,0.210 L19.144,0.328 L19.076,0.135 C18.569,0.126 17.867,0.164 16.977,0.250 C16.084,0.339 15.439,0.294 15.040,0.113 L14.647,0.423 L14.715,0.616 C14.867,0.577 14.992,0.686 15.082,0.942 L14.920,1.193 L14.757,1.444 L14.458,1.310 L14.689,1.251 L14.227,1.369 L14.091,0.984 L13.466,1.353 L13.235,1.412 L12.569,0.952 L12.962,0.642 L13.356,0.332 C13.507,0.294 13.633,0.403 13.723,0.658 L14.022,0.792 L13.886,0.407 C13.023,0.348 12.491,0.379 12.283,0.501 C12.075,0.625 11.771,0.598 11.372,0.418 L11.141,0.476 L11.210,0.669 L10.911,0.535 L10.979,0.728 L10.611,0.402 L10.816,0.979 L11.021,1.555 L10.559,1.673 L10.029,1.598 L9.593,1.080 L9.756,0.829 L9.919,0.578 L9.158,0.562 L9.226,0.754 L8.832,1.064 L8.670,1.315 L8.045,1.684 L7.421,2.052 L7.190,2.111 L7.379,1.224 L7.541,0.973 L8.003,0.855 L8.166,0.604 L7.011,0.898 L6.361,1.902 L6.088,1.133 C5.936,1.172 5.835,1.129 5.789,0.999 L4.566,1.101 C3.953,1.257 3.711,1.528 3.847,1.913 L3.385,2.031 L3.480,1.587 L2.693,2.207 L2.530,2.458 L2.205,2.960 L3.128,2.725 C0.760,3.609 -0.270,4.500 0.048,5.396 C-0.042,5.140 0.143,4.953 0.604,4.835 C1.683,4.561 4.099,4.506 7.846,4.670 C11.594,4.834 16.002,5.075 21.068,5.395 C26.129,5.713 31.432,6.113 36.974,6.590 C42.513,7.068 47.763,7.443 52.730,7.719 L52.730,7.719 L52.730,7.719 L52.730,7.719 L52.730,7.719 L52.730,7.719 L52.730,7.719 L52.730,7.719 C58.201,8.005 62.681,7.982 66.175,7.654 ZM72.955,2.993 C72.999,3.119 72.943,3.205 72.792,3.244 L72.792,3.244 L72.955,2.993 ZM74.477,3.025 L74.545,3.217 L74.246,3.084 L74.477,3.025 L74.408,2.832 L74.408,2.832 L74.477,3.025 ZM74.015,3.142 L73.716,3.009 L73.946,2.950 L74.015,3.142 ZM72.519,2.475 L72.356,2.726 L72.288,2.533 L72.519,2.475 ZM69.911,2.928 C70.062,2.890 70.164,2.933 70.210,3.062 L69.911,2.928 ZM70.100,2.041 L70.331,1.983 L70.005,2.485 L69.774,2.544 L69.869,2.100 L69.937,2.293 L69.869,2.100 L70.100,2.041 ZM67.329,2.746 L67.098,2.805 C67.052,2.676 67.106,2.594 67.261,2.554 L67.329,2.746 ZM57.001,2.019 L57.531,2.094 L57.301,2.153 C57.100,2.063 56.846,2.058 56.540,2.136 L56.933,1.826 L57.001,2.019 ZM41.185,1.430 L40.886,1.296 L41.117,1.238 L41.185,1.430 ZM35.260,1.050 L34.798,1.168 L35.029,1.109 L35.260,1.050 L35.260,1.050 ZM33.670,0.825 L33.507,1.077 L32.815,1.253 L33.208,0.943 L33.439,0.884 L33.670,0.825 ZM33.439,0.884 C33.393,0.755 33.447,0.673 33.602,0.633 L33.439,0.884 ZM30.002,1.130 C29.847,1.169 29.668,1.143 29.472,1.055 L29.703,0.996 L30.002,1.130 ZM30.164,0.879 L30.327,0.627 C30.372,0.754 30.316,0.840 30.164,0.879 L30.395,0.820 L30.395,0.820 L30.164,0.879 ZM30.558,0.569 L30.327,0.627 C30.281,0.498 30.335,0.416 30.490,0.376 L30.558,0.569 ZM29.267,0.478 L29.472,1.055 C29.161,1.134 28.654,1.122 27.950,1.023 L28.249,1.156 L28.181,0.964 L28.480,1.097 L28.643,0.846 L28.412,0.905 L28.805,0.595 L29.104,0.729 L29.335,0.670 L29.267,0.478 ZM27.420,0.948 L27.488,1.140 C27.333,1.180 27.206,1.176 27.108,1.132 C27.005,1.086 26.879,1.086 26.727,1.124 C26.879,1.086 26.935,0.999 26.890,0.873 L27.420,0.948 ZM25.137,0.900 L25.735,1.167 L25.830,0.723 L25.992,0.472 L25.693,0.339 L25.300,0.649 L25.163,0.264 L25.163,0.264 L25.163,0.264 L25.137,0.900 ZM21.427,0.376 L21.632,0.953 L21.102,0.878 L21.033,0.686 L21.196,0.434 L21.196,0.434 L21.427,0.376 ZM16.604,0.974 L17.134,1.049 L16.972,1.300 C16.817,1.339 16.639,1.315 16.442,1.225 L16.604,0.974 Z" />
</svg>
