<svg xmlns="http://www.w3.org/2000/svg" xmlns:xlink="http://www.w3.org/1999/xlink" preserveAspectRatio="xMidYMid" width="79.095" height="7.907" viewBox="0 0 79.095 7.907">
  <path fill="#ffffff" d="M12.919,7.654 C9.429,7.323 6.682,6.906 4.680,6.396 C2.833,5.926 1.573,5.465 0.891,5.013 C0.215,4.559 -0.081,4.205 0.010,3.950 L0.472,4.067 L1.164,4.243 C1.781,4.400 2.416,4.385 3.067,4.203 C3.722,4.019 5.030,3.759 6.995,3.420 C6.688,3.342 6.244,3.298 5.657,3.289 C5.074,3.279 4.549,3.217 4.087,3.100 L3.857,3.041 L3.788,3.233 C3.482,3.155 3.240,3.127 3.062,3.153 C2.888,3.178 2.645,3.152 2.335,3.073 C2.183,3.034 2.116,2.981 2.138,2.918 C2.161,2.852 2.096,2.803 1.941,2.763 L1.873,2.955 L1.479,2.646 L1.222,1.951 L0.761,1.834 L0.598,1.583 C0.908,1.662 1.354,1.703 1.936,1.714 C2.523,1.722 3.067,1.719 3.573,1.711 L4.035,1.828 L4.633,1.561 L4.864,1.620 L5.394,1.545 L6.386,1.588 L7.378,1.630 L7.514,1.245 C7.670,1.285 7.735,1.334 7.711,1.400 C7.689,1.463 7.757,1.517 7.908,1.555 L8.207,1.422 L8.669,1.539 C9.377,1.438 9.983,1.382 10.490,1.373 C10.998,1.362 11.585,1.370 12.243,1.400 L12.405,1.651 L12.704,1.518 L14.457,1.544 L15.218,1.528 L15.449,1.587 L15.680,1.645 C15.835,1.685 15.888,1.767 15.843,1.897 L16.142,1.763 L16.210,1.571 L16.672,1.688 L16.971,1.554 C19.447,1.205 21.851,1.047 24.187,1.084 C26.526,1.119 29.040,1.129 31.728,1.115 L32.189,1.233 C32.344,1.272 32.627,1.308 33.032,1.342 C33.441,1.374 33.746,1.347 33.942,1.259 L34.241,1.126 L34.173,1.318 L34.241,1.126 L34.404,1.377 L34.703,1.243 L34.771,1.051 L34.934,1.302 L35.165,1.361 L35.233,1.169 C35.279,1.039 35.404,0.930 35.600,0.842 L36.062,0.960 L35.857,1.537 L36.157,1.403 L36.062,0.960 C37.388,1.015 38.323,0.975 38.875,0.837 C38.830,0.963 38.886,1.049 39.038,1.088 L39.106,0.895 L39.337,0.954 L39.568,1.013 L39.337,0.954 C39.935,0.687 40.568,0.566 41.226,0.596 C41.889,0.624 42.241,0.573 42.286,0.446 L42.517,0.505 C42.672,0.545 42.799,0.541 42.897,0.497 C43.000,0.451 43.126,0.450 43.278,0.489 L43.509,0.548 C44.879,0.477 46.257,0.372 47.647,0.238 C49.040,0.101 49.865,0.137 50.126,0.344 L49.895,0.286 C50.205,0.365 50.420,0.347 50.541,0.240 C50.666,0.131 50.903,0.050 51.254,0.002 L51.417,0.253 C51.819,0.074 52.120,0.046 52.327,0.171 C52.536,0.293 52.841,0.265 53.238,0.087 C53.193,0.214 53.249,0.300 53.401,0.339 L53.632,0.397 L53.862,0.456 C53.999,0.072 54.377,-0.042 54.991,0.114 C55.608,0.271 56.114,0.262 56.513,0.082 L56.376,0.467 L56.077,0.600 L56.539,0.718 L56.471,0.910 L56.539,0.718 L56.701,0.969 L57.001,0.835 L57.368,0.509 L56.607,0.525 L56.906,0.392 L56.743,0.141 C57.250,0.132 57.722,0.111 58.150,0.079 C58.581,0.051 59.026,0.093 59.488,0.210 L59.950,0.328 L60.018,0.135 C60.525,0.126 61.227,0.164 62.117,0.250 C63.010,0.339 63.655,0.294 64.054,0.113 L64.447,0.423 L64.379,0.616 C64.227,0.577 64.102,0.686 64.012,0.942 L64.174,1.193 L64.337,1.444 L64.636,1.310 L64.405,1.251 L64.867,1.369 L65.003,0.984 L65.628,1.353 L65.859,1.412 L66.525,0.952 L66.132,0.642 L65.738,0.332 C65.587,0.294 65.461,0.403 65.371,0.658 L65.072,0.792 L65.208,0.407 C66.071,0.348 66.603,0.379 66.811,0.501 C67.019,0.625 67.323,0.598 67.722,0.418 L67.953,0.476 L67.884,0.669 L68.183,0.535 L68.115,0.728 L68.483,0.402 L68.278,0.979 L68.073,1.555 L68.535,1.673 L69.065,1.598 L69.501,1.080 L69.338,0.829 L69.175,0.578 L69.936,0.562 L69.868,0.754 L70.262,1.064 L70.424,1.315 L71.049,1.684 L71.673,2.052 L71.904,2.111 L71.715,1.224 L71.553,0.973 L71.091,0.855 L70.928,0.604 L72.083,0.898 L72.733,1.902 L73.006,1.133 C73.158,1.172 73.259,1.129 73.305,0.999 L74.528,1.101 C75.141,1.257 75.383,1.528 75.247,1.913 L75.709,2.031 L75.614,1.587 L76.401,2.207 L76.564,2.458 L76.889,2.960 L75.966,2.725 C78.334,3.609 79.364,4.500 79.046,5.396 C79.136,5.140 78.951,4.953 78.490,4.835 C77.411,4.561 74.995,4.506 71.248,4.670 C67.500,4.834 63.092,5.075 58.026,5.395 C52.965,5.713 47.662,6.113 42.120,6.590 C36.581,7.068 31.331,7.443 26.364,7.719 L26.364,7.719 L26.364,7.719 L26.364,7.719 L26.364,7.719 L26.364,7.719 L26.364,7.719 L26.364,7.719 C20.893,8.005 16.413,7.982 12.919,7.654 ZM6.139,2.993 C6.095,3.119 6.151,3.205 6.302,3.244 L6.302,3.244 L6.139,2.993 ZM4.617,3.025 L4.549,3.217 L4.848,3.084 L4.617,3.025 L4.686,2.832 L4.686,2.832 L4.617,3.025 ZM5.079,3.142 L5.378,3.009 L5.148,2.950 L5.079,3.142 ZM6.575,2.475 L6.738,2.726 L6.806,2.533 L6.575,2.475 ZM9.183,2.928 C9.032,2.890 8.930,2.933 8.884,3.062 L9.183,2.928 ZM8.994,2.041 L8.763,1.983 L9.089,2.485 L9.320,2.544 L9.225,2.100 L9.157,2.293 L9.225,2.100 L8.994,2.041 ZM11.765,2.746 L11.996,2.805 C12.042,2.676 11.988,2.594 11.833,2.554 L11.765,2.746 ZM22.093,2.019 L21.563,2.094 L21.793,2.153 C21.994,2.063 22.248,2.058 22.554,2.136 L22.161,1.826 L22.093,2.019 ZM37.909,1.430 L38.208,1.296 L37.977,1.238 L37.909,1.430 ZM43.834,1.050 L44.296,1.168 L44.065,1.109 L43.834,1.050 L43.834,1.050 ZM45.424,0.825 L45.587,1.077 L46.279,1.253 L45.886,0.943 L45.655,0.884 L45.424,0.825 ZM45.655,0.884 C45.701,0.755 45.647,0.673 45.492,0.633 L45.655,0.884 ZM49.092,1.130 C49.247,1.169 49.426,1.143 49.622,1.055 L49.391,0.996 L49.092,1.130 ZM48.930,0.879 L48.767,0.627 C48.722,0.754 48.778,0.840 48.930,0.879 L48.699,0.820 L48.699,0.820 L48.930,0.879 ZM48.536,0.569 L48.767,0.627 C48.813,0.498 48.759,0.416 48.604,0.376 L48.536,0.569 ZM49.827,0.478 L49.622,1.055 C49.933,1.134 50.440,1.122 51.144,1.023 L50.845,1.156 L50.913,0.964 L50.614,1.097 L50.451,0.846 L50.682,0.905 L50.289,0.595 L49.990,0.729 L49.759,0.670 L49.827,0.478 ZM51.674,0.948 L51.606,1.140 C51.761,1.180 51.888,1.176 51.986,1.132 C52.089,1.086 52.215,1.086 52.367,1.124 C52.215,1.086 52.159,0.999 52.204,0.873 L51.674,0.948 ZM53.957,0.900 L53.359,1.167 L53.264,0.723 L53.102,0.472 L53.401,0.339 L53.794,0.649 L53.931,0.264 L53.931,0.264 L53.931,0.264 L53.957,0.900 ZM57.667,0.376 L57.462,0.953 L57.992,0.878 L58.061,0.686 L57.898,0.434 L57.898,0.434 L57.667,0.376 ZM62.490,0.974 L61.960,1.049 L62.122,1.300 C62.277,1.339 62.455,1.315 62.652,1.225 L62.490,0.974 Z" />
</svg>
