<svg xmlns="http://www.w3.org/2000/svg" xmlns:xlink="http://www.w3.org/1999/xlink" preserveAspectRatio="xMidYMid" width="46" height="32.84" viewBox="0 0 46 32.84">
  <path fill="#666" d="M44.527,6.525 C44.481,8.919 43.151,12.616 43.151,12.616 C43.151,12.616 40.168,14.674 35.397,14.674 C30.626,14.674 28.011,12.406 28.011,12.406 C28.011,12.406 25.442,10.179 24.983,5.433 C24.983,5.433 25.028,4.427 23.431,4.425 C21.833,4.427 21.878,5.433 21.878,5.433 C21.420,10.179 18.851,12.406 18.851,12.406 C18.851,12.406 16.236,14.674 11.465,14.674 C6.693,14.674 3.711,12.616 3.711,12.616 C3.711,12.616 2.381,8.919 2.335,6.525 C2.289,4.131 0.867,4.005 0.867,4.005 L0.959,1.821 C6.831,-1.792 17.521,0.854 20.686,1.947 C22.857,2.695 23.024,2.778 23.431,2.779 C23.838,2.778 24.005,2.695 26.176,1.947 C29.341,0.854 40.031,-1.792 45.903,1.821 L45.995,4.005 C45.995,4.005 44.572,4.131 44.527,6.525 ZM2.434,2.377 C1.939,2.377 1.537,2.604 1.537,2.885 C1.537,3.166 1.939,3.393 2.434,3.393 C2.929,3.393 3.331,3.166 3.331,2.885 C3.331,2.604 2.929,2.377 2.434,2.377 ZM19.493,3.459 C17.577,1.710 12.741,1.401 10.226,1.401 C6.198,1.401 3.619,2.219 3.666,5.475 C3.711,8.709 3.666,13.078 11.051,13.582 C15.069,13.856 18.759,11.944 19.906,7.618 C20.214,6.457 20.646,4.511 19.493,3.459 ZM36.636,1.401 C34.121,1.401 29.285,1.710 27.369,3.459 C26.215,4.511 26.648,6.457 26.956,7.618 C28.103,11.944 31.793,13.856 35.810,13.582 C43.196,13.078 43.151,8.709 43.196,5.475 C43.243,2.219 40.664,1.401 36.636,1.401 ZM44.392,2.411 C43.876,2.411 43.457,2.648 43.457,2.941 C43.457,3.234 43.876,3.471 44.392,3.471 C44.908,3.471 45.326,3.234 45.326,2.941 C45.326,2.648 44.908,2.411 44.392,2.411 ZM2.029,24.172 C2.043,24.150 2.077,24.169 2.064,24.192 C1.034,26.079 2.885,27.170 4.647,27.663 C5.471,27.559 6.277,27.323 7.065,26.988 C6.236,26.970 5.405,26.817 4.582,26.485 C4.564,26.477 4.570,26.452 4.590,26.456 C5.899,26.749 7.204,26.636 8.487,26.288 C11.861,24.396 14.902,21.257 17.677,20.806 C20.557,20.338 22.613,22.261 23.000,24.927 C23.386,22.261 25.442,20.338 28.322,20.806 C31.098,21.257 34.138,24.396 37.512,26.288 C38.796,26.636 40.100,26.749 41.409,26.456 C41.429,26.452 41.435,26.477 41.417,26.485 C40.594,26.817 39.764,26.970 38.934,26.988 C39.708,27.317 40.500,27.549 41.309,27.656 C42.803,27.215 45.094,26.315 43.935,24.192 C43.923,24.169 43.956,24.150 43.971,24.172 C44.737,25.300 44.477,26.549 43.726,27.540 C44.470,27.369 45.226,27.078 45.999,26.605 C41.599,31.769 35.515,32.376 31.828,32.168 C33.096,32.476 34.378,32.677 35.558,32.781 C35.564,32.782 35.564,32.791 35.558,32.791 C32.114,32.914 27.955,33.129 25.347,30.470 C24.791,29.903 24.365,29.305 24.050,28.685 C23.533,28.040 23.153,27.336 23.002,26.586 C22.864,27.276 22.543,27.932 22.090,28.534 C21.772,29.241 21.314,29.903 20.652,30.470 C17.724,32.980 14.140,32.923 10.442,32.791 C10.435,32.791 10.435,32.782 10.442,32.781 C11.621,32.677 12.904,32.476 14.171,32.168 C10.485,32.376 4.400,31.769 0.000,26.605 C0.801,27.095 1.584,27.391 2.353,27.558 C1.522,26.613 1.175,25.427 2.029,24.172 Z"/>
</svg>
