<svg xmlns="http://www.w3.org/2000/svg" xmlns:xlink="http://www.w3.org/1999/xlink" preserveAspectRatio="xMidYMid" width="44.281" height="33.79" viewBox="0 0 44.281 33.79">
  <path fill="#666" d="M44.156,7.884 L42.036,9.998 C41.889,10.144 41.660,10.152 41.524,10.017 L40.184,8.681 C40.048,8.546 40.056,8.317 40.203,8.171 C39.503,6.809 38.077,6.355 37.827,6.284 L36.161,7.405 L33.224,4.686 L34.216,3.048 C34.157,2.817 33.873,2.311 32.537,2.029 C30.767,1.655 27.934,2.319 27.934,2.319 L27.684,1.655 C32.266,-1.334 36.851,0.699 36.851,0.699 L36.851,0.701 C36.898,0.716 36.942,0.741 36.979,0.777 L40.051,3.534 C40.175,3.658 40.173,3.856 40.062,4.001 L40.087,3.976 C40.827,5.861 42.373,6.015 42.373,6.015 C42.373,6.015 42.368,6.024 42.365,6.029 C42.510,5.917 42.710,5.915 42.835,6.039 L44.175,7.375 C44.311,7.511 44.302,7.739 44.156,7.884 ZM37.849,6.201 L37.853,6.206 L37.876,6.182 C37.867,6.189 37.858,6.195 37.849,6.201 ZM31.641,6.257 L32.102,5.887 L34.851,8.315 C34.851,8.315 34.890,8.609 34.002,9.246 C33.113,9.882 30.864,12.041 29.725,13.674 C29.006,14.706 28.133,15.963 25.706,18.674 C24.909,17.804 23.878,16.716 22.763,15.575 C25.078,13.157 26.209,12.225 28.059,10.685 C30.919,8.305 31.641,6.257 31.641,6.257 ZM11.718,2.029 C10.381,2.311 10.097,2.817 10.038,3.048 L11.030,4.686 L8.094,7.405 L6.428,6.284 C6.177,6.355 4.752,6.809 4.052,8.171 C4.198,8.317 4.207,8.546 4.071,8.681 L2.730,10.017 C2.594,10.152 2.365,10.144 2.219,9.998 L0.098,7.884 C-0.048,7.739 -0.056,7.511 0.080,7.375 L1.420,6.039 C1.544,5.915 1.744,5.917 1.890,6.029 C1.886,6.024 1.881,6.015 1.881,6.015 C1.881,6.015 3.427,5.861 4.167,3.976 L4.192,4.001 C4.081,3.856 4.079,3.658 4.203,3.534 L7.276,0.777 C7.313,0.741 7.357,0.716 7.404,0.701 L7.404,0.699 C7.404,0.699 11.988,-1.334 16.570,1.655 L16.320,2.319 C16.320,2.319 13.488,1.655 11.718,2.029 ZM6.378,6.182 L6.402,6.206 L6.406,6.201 C6.397,6.195 6.387,6.189 6.378,6.182 ZM9.954,29.202 C11.621,27.984 17.742,21.021 17.761,20.998 C18.344,21.274 19.001,21.744 19.453,22.244 C19.962,22.809 20.369,23.445 20.598,24.127 C20.399,24.316 20.524,24.171 20.367,24.303 C18.285,26.047 13.231,31.970 12.676,32.828 C12.120,33.686 11.204,34.544 9.316,32.662 C7.427,30.780 8.288,30.420 9.954,29.202 ZM10.253,9.246 C9.364,8.609 9.403,8.315 9.403,8.315 L12.152,5.887 L12.613,6.257 C12.613,6.257 13.335,8.305 16.195,10.685 C19.055,13.066 24.609,18.822 26.247,20.760 C27.886,22.697 32.634,27.984 34.300,29.202 C35.966,30.420 36.827,30.780 34.939,32.662 C33.051,34.544 32.134,33.686 31.579,32.828 C31.024,31.970 25.970,26.047 23.887,24.303 C21.804,22.559 15.668,15.307 14.529,13.674 C13.391,12.041 11.141,9.882 10.253,9.246 Z" />
</svg>
