<svg xmlns="http://www.w3.org/2000/svg" xmlns:xlink="http://www.w3.org/1999/xlink" preserveAspectRatio="xMidYMid" width="32.094" height="39.81" viewBox="0 0 32.094 39.81">
  <path fill="#666" d="M30.321,28.397 C26.506,36.586 18.741,38.170 18.381,38.205 L16.049,39.814 L13.634,38.205 C13.273,38.170 5.581,36.489 1.778,28.397 L-0.002,29.661 L0.938,22.372 L6.851,27.170 L4.521,27.372 C6.926,32.313 12.556,33.941 13.600,33.941 L14.212,16.170 L14.201,16.170 L8.832,15.419 L8.832,12.537 L14.251,12.537 L14.251,12.532 L14.251,10.672 C12.058,9.933 10.475,7.889 10.475,5.484 C10.475,2.459 12.976,-0.003 16.049,-0.003 C19.123,-0.003 21.624,2.459 21.624,5.484 C21.624,7.889 20.041,9.933 17.848,10.672 L17.848,12.532 L17.848,12.537 L23.267,12.537 L23.267,15.419 L17.898,16.170 L17.888,16.170 L18.529,33.941 C19.364,33.941 25.173,32.313 27.578,27.372 L25.247,27.170 L31.161,22.372 L32.101,29.661 L30.321,28.397 ZM19.317,5.484 C19.317,3.710 17.851,2.267 16.049,2.267 C14.248,2.267 12.782,3.710 12.782,5.484 C12.782,7.257 14.248,8.700 16.049,8.700 C17.851,8.700 19.317,7.257 19.317,5.484 ZM-3.153,168.522 C-3.144,168.529 -3.135,168.535 -3.125,168.541 L-3.130,168.546 L-3.153,168.522 Z"/>
</svg>
