<svg xmlns="http://www.w3.org/2000/svg" xmlns:xlink="http://www.w3.org/1999/xlink" preserveAspectRatio="xMidYMid" width="40.812" height="25.1" viewBox="0 0 40.812 25.1">
  <path fill="#666" d="M40.745,9.154 L40.357,6.149 C40.357,5.783 40.069,5.365 39.718,5.221 L35.456,3.182 C35.105,3.039 34.611,3.136 34.358,3.398 L32.748,4.659 L32.748,4.659 C31.224,5.805 30.456,4.638 30.188,4.059 L29.315,1.878 C29.245,1.519 28.884,1.164 28.512,1.090 L24.543,0.206 C24.172,0.133 23.705,0.323 23.507,0.629 L22.571,1.570 C21.261,2.957 19.371,2.532 18.559,1.829 L17.456,0.456 C17.266,0.144 16.804,-0.058 16.431,0.006 L11.745,0.534 C11.372,0.598 11.002,0.943 10.923,1.301 L10.206,3.229 C9.518,4.976 8.191,4.557 7.593,4.256 L6.466,3.418 C6.220,3.149 5.728,3.039 5.374,3.173 L1.537,4.529 C1.183,4.664 0.884,5.074 0.874,5.440 L0.055,8.884 C-0.014,9.337 -0.027,9.801 0.016,10.268 L0.015,10.304 C0.015,10.330 0.026,10.354 0.028,10.379 C0.079,10.831 0.178,11.284 0.344,11.730 C1.245,14.161 3.626,15.568 6.062,15.349 L5.997,15.397 C6.868,15.405 9.592,15.680 9.946,18.492 C10.300,21.303 6.896,22.158 6.896,22.158 L6.896,22.764 C6.896,22.764 11.915,25.101 19.968,25.107 L19.968,25.107 C19.973,25.107 19.977,25.107 19.982,25.107 C19.986,25.107 19.991,25.107 19.995,25.107 L19.995,25.107 C28.048,25.101 33.067,22.764 33.067,22.764 L33.067,22.158 C33.067,22.158 29.662,21.303 30.016,18.492 C30.371,15.680 33.094,15.405 33.965,15.397 L33.878,15.334 C36.530,15.997 39.328,14.630 40.384,11.992 C40.561,11.551 40.672,11.101 40.734,10.650 C40.737,10.625 40.749,10.601 40.749,10.575 L40.749,10.539 C40.804,10.074 40.803,9.609 40.745,9.154 ZM26.026,2.893 C28.152,3.314 29.537,5.400 29.121,7.551 C28.704,9.702 26.644,11.104 24.518,10.683 C22.393,10.262 21.007,8.176 21.424,6.025 C21.840,3.873 23.901,2.471 26.026,2.893 ZM14.350,2.443 C16.486,2.078 18.510,3.534 18.871,5.695 C19.232,7.857 17.794,9.905 15.658,10.270 C13.523,10.636 11.499,9.180 11.137,7.019 C10.776,4.858 12.214,2.809 14.350,2.443 ZM1.899,11.139 C1.138,9.087 2.165,6.799 4.192,6.028 C6.220,5.258 8.481,6.297 9.242,8.350 C10.003,10.402 8.976,12.690 6.948,13.460 C4.921,14.231 2.660,13.191 1.899,11.139 ZM28.192,18.713 C26.966,21.975 20.285,21.677 19.995,21.663 L19.995,21.662 C19.995,21.662 19.983,21.662 19.982,21.662 C19.980,21.662 19.968,21.662 19.968,21.662 L19.968,21.663 C19.679,21.677 12.996,21.975 11.770,18.713 C10.535,15.423 10.233,11.926 13.335,11.724 C14.152,11.986 15.032,12.083 15.935,11.929 C16.961,11.753 17.860,11.288 18.599,10.652 L18.569,10.707 C18.569,10.707 19.822,9.399 21.188,10.707 L21.244,10.686 C22.013,11.502 23.022,12.100 24.199,12.333 C25.388,12.569 26.557,12.392 27.581,11.919 C29.649,12.734 29.283,15.806 28.192,18.713 ZM38.845,11.360 C38.031,13.392 35.745,14.372 33.737,13.549 C31.730,12.726 30.762,10.411 31.575,8.380 C32.389,6.348 34.675,5.368 36.683,6.191 C38.690,7.015 39.658,9.329 38.845,11.360 Z"/>
</svg>
